<?xml version="1.0" encoding="utf-8"?>
<!-- Svg Vector Icons : http://www.onlinewebfonts.com/icon -->
<!DOCTYPE svg PUBLIC "-//W3C//DTD SVG 1.1//EN" "http://www.w3.org/Graphics/SVG/1.1/DTD/svg11.dtd">
<svg version="1.1" xmlns="http://www.w3.org/2000/svg" xmlns:xlink="http://www.w3.org/1999/xlink" x="0px" y="0px" viewBox="0 0 1000 1000" enable-background="new 0 0 1000 1000" xml:space="preserve">
<metadata> Svg Vector Icons : http://www.onlinewebfonts.com/icon </metadata>
<g><path d="M354.5,250.7v-97c0-17.2,14-31.2,31.2-31.2H605c17.2,0,31.2,13.9,31.2,31.2v97.1h74.1V103.4c0-23-18.6-41.7-41.6-41.7H322c-23,0-41.6,18.7-41.6,41.7v147.3H354.5z"/><path d="M624.8,562.9h-83.4v-83.4h-82.8v83.4h-83.3v82.8h83.3v83.3h82.8v-83.3h83.4V562.9z"/><path d="M886,268.8H114c-57.4,0-104,46.6-104,104v461.5c0,57.4,46.6,103.9,104,103.9h772c57.4,0,104-46.5,104-103.9V372.8C990.1,315.3,943.4,268.8,886,268.8z M149.8,878.1h-35.1V330.9h35.1V878.1z M500,820.6c-116.8,0-211.6-94.8-211.6-211.6c0-116.8,94.7-211.6,211.6-211.6S711.5,492.2,711.5,609S616.9,820.6,500,820.6z M875.1,878.1H840V330.9h35.1V878.1z"/></g>
</svg>