<svg id="Layer_1" data-name="Layer 1" xmlns="http://www.w3.org/2000/svg" viewBox="0 0 90 92"><defs><style>.cls-1,.cls-2,.cls-4,.cls-5{fill:none;}.cls-1,.cls-2,.cls-3,.cls-4{stroke:#000;stroke-miterlimit:10;}.cls-1{stroke-width:6px;}.cls-2,.cls-3{stroke-width:5px;}.cls-4{stroke-width:3px;}</style></defs><rect class="cls-1" x="18.5" y="19.63" width="54.47" height="62.87" rx="3.99"/><path class="cls-2" d="M25,57H38.69l4.58-6.43a.1.1,0,0,1,.18,0l3.79,17.65a.13.13,0,0,0,.25,0l5.39-29.66a.35.35,0,0,1,.68,0L59,66.41a.17.17,0,0,0,.32,0l3.82-7.64a2.92,2.92,0,0,1,2.64-1.62l13.74.12" transform="translate(-6.5 -3.5)"/><rect class="cls-3" x="31.3" y="13.8" width="28.06" height="8.75" rx="1.59"/><circle class="cls-4" cx="45.25" cy="7.47" r="3.89"/><rect class="cls-5" width="90" height="92"/></svg>