<?xml version="1.0" encoding="utf-8"?>
<!-- Generator: Adobe Illustrator 26.0.3, SVG Export Plug-In . SVG Version: 6.00 Build 0)  -->
<svg version="1.1" id="Layer_1" xmlns="http://www.w3.org/2000/svg" xmlns:xlink="http://www.w3.org/1999/xlink" x="0px" y="0px"
	 viewBox="0 0 1000 1000" style="enable-background:new 0 0 1000 1000;" xml:space="preserve">
<style type="text/css">
	.st0{stroke:#000000;stroke-width:49;stroke-linecap:round;stroke-miterlimit:10;}
	.st1{fill:none;}
</style>
<line class="st0" x1="112.9" y1="112.9" x2="884.7" y2="884.7"/>
<g>
	<path class="st1" d="M500,675c-67.4,0-125.1-24-173.1-71.9C279,555.1,255,497.4,255,430c0-44.1,11.1-85.1,33.4-123
		c-83.5,42.6-153,107-208.4,193c48.5,74.7,109.3,134.3,182.4,178.6C335.5,722.9,414.7,745,500,745c70.7,0,137.1-15.2,199.4-45.6
		l-64.6-64.6C595.3,661.6,550.4,675,500,675z"/>
	<path class="st1" d="M699.4,699.4c12.9-6.3,25.6-13.2,38.2-20.8c1.8-1.1,3.6-2.2,5.3-3.3l-71-71c-11.8,11.6-24.1,21.8-37.1,30.6
		L699.4,699.4z"/>
	<path class="st1" d="M419.8,349.5c22.2-22.2,49-33.4,80.4-33.4c7.3,0,13.5-2.6,18.6-7.7c4.9-4.9,7.5-11.1,7.5-18.4
		s-2.6-13.5-7.7-18.6c-5.1-5.1-11.3-7.7-18.6-7.7c-45.6,0-84.7,16.3-117.3,48.9c-0.4,0.4-0.8,0.8-1.2,1.2l37,37
		C418.9,350.4,419.4,349.9,419.8,349.5z"/>
	<path class="st1" d="M333.8,429.9c0,7.3,2.6,13.5,7.7,18.6c5.1,5.1,11.3,7.7,18.6,7.7c7.3,0,13.5-2.6,18.6-7.7
		c5.1-5.1,7.7-11.3,7.7-18.6c0-13.3,2-25.8,6-37.5l-39.8-39.8C340.1,375.9,333.8,401.6,333.8,429.9z"/>
	<path class="st1" d="M392.4,392.4c5.2-15.3,13.9-29.1,26.1-41.6l-37-37c-11.8,12-21.5,25-28.9,38.8L392.4,392.4z"/>
	<path class="st1" d="M920,500c-55.4-86-124.9-150.4-208.4-193c22.2,37.9,33.4,78.9,33.4,123c0,67.4-24,125.1-71.9,173.1
		c-0.4,0.4-0.8,0.8-1.2,1.2l71,71C813.7,631.4,872.7,572.9,920,500z"/>
	<path d="M500,745c-85.3,0-164.5-22.1-237.6-66.4C189.3,634.3,128.5,574.7,80,500c55.4-86,124.9-150.4,208.4-193
		c-22.3,37.9-33.4,78.9-33.4,123c0,67.4,24,125.1,71.9,173.1C374.9,651,432.6,675,500,675c50.4,0,95.3-13.4,134.8-40.2L392.4,392.4
		c-4,11.7-6,24.2-6,37.5c0,7.3-2.6,13.5-7.7,18.6c-5.1,5.1-11.3,7.7-18.6,7.7c-7.3,0-13.5-2.6-18.6-7.7c-5.1-5.1-7.7-11.3-7.7-18.6
		c0-28.3,6.3-54,18.8-77.3L248.7,248.7c-7.3,3.9-14.7,8-21.9,12.3C140.6,311.7,72,378.8,20.9,462.3C13.6,475,10,487.6,10,500
		c0,12.4,3.6,25,10.9,37.7C72,621.2,140.6,688.3,226.8,739c86.3,50.7,177.3,76,273.2,76c87.9,0,171.6-21.2,251.4-63.6l-52-52
		C637.1,729.8,570.7,745,500,745z"/>
	<path d="M979.1,462.2c-51-83.4-119.7-150.5-205.9-201.2c-86.3-50.7-177.3-76-273.2-76c-71.2,0-139.7,13.9-205.5,41.9l87,87
		c0.4-0.4,0.8-0.8,1.2-1.2c32.6-32.6,71.7-48.9,117.3-48.9c7.3,0,13.5,2.6,18.6,7.7c5.1,5.1,7.7,11.3,7.7,18.6s-2.6,13.5-7.5,18.4
		c-5.1,5.1-11.3,7.7-18.6,7.7c-31.4,0-58.2,11.2-80.4,33.4c-0.4,0.4-0.9,0.9-1.3,1.3l253.4,253.4c0.4-0.4,0.8-0.8,1.2-1.2
		C721,555.1,745,497.4,745,430c0-44.1-11.2-85.1-33.4-123c83.5,42.6,153,107,208.4,193c-47.3,72.9-106.3,131.4-177.1,175.3
		l51.1,51.1c76.5-48.9,138.2-111.7,185.1-188.7C986.4,525,990,512.4,990,500C990,487.6,986.4,475,979.1,462.2z"/>
</g>
</svg>
