<svg width="63" height="94" viewBox="0 0 63 94" fill="none" xmlns="http://www.w3.org/2000/svg">
    <path d="M11.24 44H14.91C14.99 44 15.06 44.03 15.12 44.09C15.18 44.1433 15.21 44.2133 15.21 44.3C15.21 44.3867 15.18 44.4567 15.12 44.51C15.06 44.5633 14.99 44.59 14.91 44.59H11.47L11.57 44.42V47.23L11.46 47.1H14.46C14.54 47.1 14.61 47.13 14.67 47.19C14.73 47.25 14.76 47.32 14.76 47.4C14.76 47.4867 14.73 47.5567 14.67 47.61C14.61 47.6633 14.54 47.69 14.46 47.69H11.48L11.57 47.59V50.47L11.52 50.41H14.91C14.99 50.41 15.06 50.44 15.12 50.5C15.18 50.56 15.21 50.63 15.21 50.71C15.21 50.7967 15.18 50.8667 15.12 50.92C15.06 50.9733 14.99 51 14.91 51H11.24C11.16 51 11.09 50.97 11.03 50.91C10.97 50.85 10.94 50.78 10.94 50.7V44.3C10.94 44.22 10.97 44.15 11.03 44.09C11.09 44.03 11.16 44 11.24 44ZM18.5536 51.1C18.0469 51.1067 17.6069 51.0267 17.2336 50.86C16.8603 50.6933 16.5036 50.4433 16.1636 50.11C16.1303 50.0833 16.1003 50.05 16.0736 50.01C16.0536 49.97 16.0436 49.9233 16.0436 49.87C16.0436 49.79 16.0736 49.7167 16.1336 49.65C16.2003 49.5833 16.2736 49.55 16.3536 49.55C16.4336 49.55 16.5069 49.5833 16.5736 49.65C16.8336 49.93 17.1269 50.1433 17.4536 50.29C17.7869 50.4367 18.1436 50.51 18.5236 50.51C18.8436 50.51 19.1269 50.46 19.3736 50.36C19.6269 50.26 19.8269 50.1167 19.9736 49.93C20.1203 49.7433 20.1936 49.5267 20.1936 49.28C20.1936 48.9733 20.1103 48.7267 19.9436 48.54C19.7769 48.3467 19.5569 48.19 19.2836 48.07C19.0103 47.9433 18.7069 47.83 18.3736 47.73C18.1003 47.65 17.8403 47.56 17.5936 47.46C17.3469 47.3533 17.1269 47.2267 16.9336 47.08C16.7403 46.9267 16.5903 46.74 16.4836 46.52C16.3769 46.3 16.3236 46.0333 16.3236 45.72C16.3236 45.3667 16.4169 45.0533 16.6036 44.78C16.7903 44.5067 17.0536 44.2933 17.3936 44.14C17.7403 43.98 18.1403 43.9 18.5936 43.9C18.9869 43.9 19.3636 43.9667 19.7236 44.1C20.0903 44.2333 20.3803 44.43 20.5936 44.69C20.6936 44.7967 20.7436 44.8933 20.7436 44.98C20.7436 45.0467 20.7103 45.1133 20.6436 45.18C20.5769 45.2467 20.5036 45.28 20.4236 45.28C20.3569 45.28 20.3003 45.2567 20.2536 45.21C20.1403 45.07 19.9969 44.9467 19.8236 44.84C19.6503 44.7267 19.4569 44.64 19.2436 44.58C19.0369 44.52 18.8203 44.49 18.5936 44.49C18.2803 44.49 17.9969 44.54 17.7436 44.64C17.4969 44.7333 17.3003 44.87 17.1536 45.05C17.0136 45.23 16.9436 45.4467 16.9436 45.7C16.9436 45.98 17.0236 46.21 17.1836 46.39C17.3436 46.57 17.5536 46.72 17.8136 46.84C18.0736 46.9533 18.3503 47.06 18.6436 47.16C18.9303 47.24 19.2036 47.3333 19.4636 47.44C19.7303 47.54 19.9636 47.6667 20.1636 47.82C20.3703 47.9733 20.5303 48.1667 20.6436 48.4C20.7636 48.6333 20.8236 48.9267 20.8236 49.28C20.8236 49.62 20.7269 49.9267 20.5336 50.2C20.3403 50.4733 20.0736 50.69 19.7336 50.85C19.4003 51.01 19.0069 51.0933 18.5536 51.1ZM24.3188 51C24.2255 51 24.1488 50.97 24.0888 50.91C24.0355 50.85 24.0088 50.78 24.0088 50.7V44.33H24.6288V50.7C24.6288 50.78 24.5988 50.85 24.5388 50.91C24.4788 50.97 24.4055 51 24.3188 51ZM21.9388 44.57C21.8588 44.57 21.7888 44.5433 21.7288 44.49C21.6688 44.4367 21.6388 44.3667 21.6388 44.28C21.6388 44.2 21.6688 44.1333 21.7288 44.08C21.7888 44.0267 21.8588 44 21.9388 44H26.6988C26.7788 44 26.8488 44.0267 26.9088 44.08C26.9688 44.1333 26.9988 44.2033 26.9988 44.29C26.9988 44.3767 26.9688 44.4467 26.9088 44.5C26.8488 44.5467 26.7788 44.57 26.6988 44.57H21.9388ZM27.2079 51C27.0946 51 27.0079 50.9633 26.9479 50.89C26.8879 50.8167 26.8579 50.7233 26.8579 50.61V50.4C26.8579 50.28 26.8879 50.1867 26.9479 50.12C27.0079 50.0533 27.0946 50.02 27.2079 50.02H27.2779C27.3912 50.02 27.4779 50.0533 27.5379 50.12C27.5979 50.1867 27.6279 50.28 27.6279 50.4V50.61C27.6279 50.7233 27.5979 50.8167 27.5379 50.89C27.4779 50.9633 27.3912 51 27.2779 51H27.2079ZM35.6189 50.42C35.6989 50.42 35.7656 50.45 35.8189 50.51C35.8789 50.5633 35.9089 50.63 35.9089 50.71C35.9089 50.7967 35.8789 50.8667 35.8189 50.92C35.7656 50.9733 35.6989 51 35.6189 51H31.8689C31.7822 51 31.7056 50.9767 31.6389 50.93C31.5789 50.8767 31.5489 50.8 31.5489 50.7C31.5489 50.6267 31.5756 50.5567 31.6289 50.49L33.9389 47.94C34.3056 47.54 34.5789 47.1733 34.7589 46.84C34.9456 46.5 35.0389 46.1967 35.0389 45.93C35.0389 45.49 34.9056 45.1367 34.6389 44.87C34.3722 44.6033 34.0122 44.47 33.5589 44.47C33.3522 44.47 33.1456 44.5133 32.9389 44.6C32.7389 44.6867 32.5589 44.8 32.3989 44.94C32.2456 45.08 32.1256 45.24 32.0389 45.42C31.9989 45.4867 31.9556 45.5333 31.9089 45.56C31.8689 45.5867 31.8222 45.6 31.7689 45.6C31.6889 45.6 31.6189 45.5767 31.5589 45.53C31.4989 45.4767 31.4689 45.4133 31.4689 45.34C31.4689 45.2933 31.4789 45.2467 31.4989 45.2C31.5256 45.1533 31.5622 45.1 31.6089 45.04C31.7289 44.8333 31.8956 44.6433 32.1089 44.47C32.3222 44.2967 32.5589 44.16 32.8189 44.06C33.0856 43.9533 33.3456 43.9 33.5989 43.9C34.0256 43.9 34.3922 43.9833 34.6989 44.15C35.0122 44.31 35.2522 44.54 35.4189 44.84C35.5922 45.1333 35.6789 45.4833 35.6789 45.89C35.6789 46.2367 35.5689 46.6167 35.3489 47.03C35.1356 47.4367 34.8156 47.8767 34.3889 48.35L32.4389 50.54L32.3389 50.42H35.6189ZM39.386 51.1C38.8527 51.1 38.406 50.94 38.046 50.62C37.686 50.3 37.416 49.87 37.236 49.33C37.056 48.7833 36.966 48.1733 36.966 47.5C36.966 46.82 37.056 46.21 37.236 45.67C37.416 45.1233 37.686 44.6933 38.046 44.38C38.406 44.06 38.8527 43.9 39.386 43.9C39.9327 43.9 40.3827 44.06 40.736 44.38C41.096 44.6933 41.366 45.1233 41.546 45.67C41.726 46.21 41.816 46.82 41.816 47.5C41.816 48.1733 41.726 48.7833 41.546 49.33C41.366 49.87 41.096 50.3 40.736 50.62C40.3827 50.94 39.9327 51.1 39.386 51.1ZM39.386 50.48C39.7793 50.48 40.106 50.3567 40.366 50.11C40.6327 49.8633 40.8327 49.5167 40.966 49.07C41.106 48.6167 41.176 48.0933 41.176 47.5C41.176 46.9 41.106 46.3767 40.966 45.93C40.8327 45.4767 40.6327 45.1267 40.366 44.88C40.106 44.6333 39.7793 44.51 39.386 44.51C38.9993 44.51 38.6727 44.6333 38.406 44.88C38.146 45.1267 37.946 45.4767 37.806 45.93C37.6727 46.3767 37.606 46.9 37.606 47.5C37.606 48.0933 37.6727 48.6167 37.806 49.07C37.946 49.5167 38.146 49.8633 38.406 50.11C38.6727 50.3567 38.9993 50.48 39.386 50.48ZM47.1033 50.42C47.1833 50.42 47.2499 50.45 47.3033 50.51C47.3633 50.5633 47.3933 50.63 47.3933 50.71C47.3933 50.7967 47.3633 50.8667 47.3033 50.92C47.2499 50.9733 47.1833 51 47.1033 51H43.3533C43.2666 51 43.1899 50.9767 43.1233 50.93C43.0633 50.8767 43.0333 50.8 43.0333 50.7C43.0333 50.6267 43.0599 50.5567 43.1133 50.49L45.4233 47.94C45.7899 47.54 46.0633 47.1733 46.2433 46.84C46.4299 46.5 46.5233 46.1967 46.5233 45.93C46.5233 45.49 46.3899 45.1367 46.1233 44.87C45.8566 44.6033 45.4966 44.47 45.0433 44.47C44.8366 44.47 44.6299 44.5133 44.4233 44.6C44.2233 44.6867 44.0433 44.8 43.8833 44.94C43.7299 45.08 43.6099 45.24 43.5233 45.42C43.4833 45.4867 43.4399 45.5333 43.3933 45.56C43.3533 45.5867 43.3066 45.6 43.2533 45.6C43.1733 45.6 43.1033 45.5767 43.0433 45.53C42.9833 45.4767 42.9533 45.4133 42.9533 45.34C42.9533 45.2933 42.9633 45.2467 42.9833 45.2C43.0099 45.1533 43.0466 45.1 43.0933 45.04C43.2133 44.8333 43.3799 44.6433 43.5933 44.47C43.8066 44.2967 44.0433 44.16 44.3033 44.06C44.5699 43.9533 44.8299 43.9 45.0833 43.9C45.5099 43.9 45.8766 43.9833 46.1833 44.15C46.4966 44.31 46.7366 44.54 46.9033 44.84C47.0766 45.1333 47.1633 45.4833 47.1633 45.89C47.1633 46.2367 47.0533 46.6167 46.8333 47.03C46.6199 47.4367 46.2999 47.8767 45.8733 48.35L43.9233 50.54L43.8233 50.42H47.1033ZM52.6404 50.42C52.7204 50.42 52.7871 50.45 52.8404 50.51C52.9004 50.5633 52.9304 50.63 52.9304 50.71C52.9304 50.7967 52.9004 50.8667 52.8404 50.92C52.7871 50.9733 52.7204 51 52.6404 51H48.8904C48.8037 51 48.7271 50.9767 48.6604 50.93C48.6004 50.8767 48.5704 50.8 48.5704 50.7C48.5704 50.6267 48.5971 50.5567 48.6504 50.49L50.9604 47.94C51.3271 47.54 51.6004 47.1733 51.7804 46.84C51.9671 46.5 52.0604 46.1967 52.0604 45.93C52.0604 45.49 51.9271 45.1367 51.6604 44.87C51.3937 44.6033 51.0337 44.47 50.5804 44.47C50.3737 44.47 50.1671 44.5133 49.9604 44.6C49.7604 44.6867 49.5804 44.8 49.4204 44.94C49.2671 45.08 49.1471 45.24 49.0604 45.42C49.0204 45.4867 48.9771 45.5333 48.9304 45.56C48.8904 45.5867 48.8437 45.6 48.7904 45.6C48.7104 45.6 48.6404 45.5767 48.5804 45.53C48.5204 45.4767 48.4904 45.4133 48.4904 45.34C48.4904 45.2933 48.5004 45.2467 48.5204 45.2C48.5471 45.1533 48.5837 45.1 48.6304 45.04C48.7504 44.8333 48.9171 44.6433 49.1304 44.47C49.3437 44.2967 49.5804 44.16 49.8404 44.06C50.1071 43.9533 50.3671 43.9 50.6204 43.9C51.0471 43.9 51.4137 43.9833 51.7204 44.15C52.0337 44.31 52.2737 44.54 52.4404 44.84C52.6137 45.1333 52.7004 45.4833 52.7004 45.89C52.7004 46.2367 52.5904 46.6167 52.3704 47.03C52.1571 47.4367 51.8371 47.8767 51.4104 48.35L49.4604 50.54L49.3604 50.42H52.6404Z" fill="black"/>
    <path d="M31.5 67V54.5" stroke="#2A81EA" stroke-width="1.5"/>
    <path d="M35 22.5H28V29.5H31.5H35V22.5Z" fill="#2A81EA"/>
    <path d="M28 39.5V29.5M35 39.5V29.5M35 29.5V22.5H28V29.5M35 29.5H31.5M28 29.5H31.5M31.5 29.5V39.5" stroke="#2A81EA" stroke-width="1.5"/>
    <path d="M31.5 71L28 66H35L31.5 71Z" fill="#2A81EA"/>
    <path d="M28 54.5V66M28 66L31.5 71L35 66M28 66H35M35 66V54.5" stroke="#2A81EA" stroke-width="1.5"/>
    <path d="M56.5 18L31.5 2L6 18V22.5H1.5V71.5H6V75.5L31.5 92L56.5 75.5V71.5H61.5V22.5H56.5V18Z" stroke="black" stroke-width="2"/>
    <path d="M8 39.5H55M8 54.5H55M31.5 10L50.5 22.5V29H55V65H50.5V71.5L31.5 84.5L13 72.5V65H8V29H13V22.5L31.5 10Z" stroke="black"/>
    <path d="M35 66H28" stroke="#2A81EA"/>
    </svg>
    