<?xml version="1.0" encoding="utf-8"?>
<!-- Svg Vector Icons : http://www.onlinewebfonts.com/icon -->
<!DOCTYPE svg PUBLIC "-//W3C//DTD SVG 1.1//EN" "http://www.w3.org/Graphics/SVG/1.1/DTD/svg11.dtd">
<svg version="1.1" xmlns="http://www.w3.org/2000/svg" xmlns:xlink="http://www.w3.org/1999/xlink" x="0px" y="0px" viewBox="0 0 1000 1000" enable-background="new 0 0 1000 1000" xml:space="preserve">
<metadata> Svg Vector Icons : http://www.onlinewebfonts.com/icon </metadata>
<g><g transform="translate(0.000000,511.000000) scale(0.100000,-0.100000)"><path d="M4803.3,4784.7C3748,3452,2789,1957.6,2267.1,832.9c-579.7-1251.8-739.5-2106.8-554.6-2965.7c148.3-693.3,535.4-1353.8,1063-1814.1c1273-1113.1,3127.5-1124.7,4419.7-30.8c577.7,491.1,984.1,1203.6,1122.7,1974c55.8,317.8,57.8,791.5,0,1111.2C8115.7,241.7,7380.1,1740,6180.3,3459.7C5743.1,4087.5,5040.2,5010,4999.8,5010C4990.2,5010,4901.6,4907.9,4803.3,4784.7z M3048.9-1279.7c117.5-55.9,144.4-117.5,173.3-396.7c84.7-818.5,597-1411.6,1390.4-1611.9c242.7-61.6,292.7-94.4,342.8-227.2c36.6-96.3,19.3-192.6-52-283.1c-98.2-125.2-238.8-134.8-566.2-40.4c-610.5,177.2-1143.9,612.4-1452.1,1184.4c-154.1,288.9-271.5,741.4-271.5,1057.3c0,96.3,9.6,140.6,48.1,204.1C2738.9-1258.5,2904.5-1210.3,3048.9-1279.7z"/></g></g>
</svg>